ISO-10303-21;
HEADER;
/* Generated by software containing ST-Developer
 * from STEP Tools, Inc. (www.steptools.com) 
 */

FILE_DESCRIPTION(
/* description */ (''),
/* implementation_level */ '2;1');

FILE_NAME(
/* name */ 'Bottom.step',
/* time_stamp */ '2026-08-19T19:16:01+01:00',
/* author */ (''),
/* organization */ (''),
/* preprocessor_version */ 'ST-DEVELOPER v20.1',
/* originating_system */ 'Autodesk Translation Framework v15.8.0.0',
/* authorisation */ '');

FILE_SCHEMA (('AUTOMOTIVE_DESIGN { 1 0 10303 214 3 1 1 }'));
ENDSEC;

DATA;
#10=MECHANICAL_DESIGN_GEOMETRIC_PRESENTATION_REPRESENTATION('',(#407,#408,
#409,#410,#411,#412,#413,#414,#415,#416,#417,#418,#419,#420),#732);
#11=SHAPE_REPRESENTATION_RELATIONSHIP('SRR','None',#738,#12);
#12=ADVANCED_BREP_SHAPE_REPRESENTATION('',(#13),#731);
#13=MANIFOLD_SOLID_BREP('Body1',#448);
#14=FACE_BOUND('',#78,.T.);
#15=FACE_BOUND('',#80,.T.);
#16=FACE_BOUND('',#84,.T.);
#17=FACE_BOUND('',#85,.T.);
#18=FACE_BOUND('',#86,.T.);
#19=FACE_BOUND('',#87,.T.);
#20=FACE_BOUND('',#88,.T.);
#21=FACE_BOUND('',#94,.T.);
#22=FACE_BOUND('',#101,.T.);
#23=CYLINDRICAL_SURFACE('',#462,2.5);
#24=CYLINDRICAL_SURFACE('',#469,1.45);
#25=CYLINDRICAL_SURFACE('',#470,1.45);
#26=CYLINDRICAL_SURFACE('',#476,1.45);
#27=CYLINDRICAL_SURFACE('',#477,1.45);
#28=CYLINDRICAL_SURFACE('',#478,1.45);
#29=CIRCLE('',#455,1.45);
#30=CIRCLE('',#457,1.45);
#31=CIRCLE('',#459,1.45);
#32=CIRCLE('',#461,1.45);
#33=CIRCLE('',#463,2.5);
#34=CIRCLE('',#464,2.5);
#35=CIRCLE('',#466,1.45);
#36=CIRCLE('',#468,1.45);
#37=CIRCLE('',#471,1.45);
#38=CIRCLE('',#473,1.45);
#39=CIRCLE('',#474,1.45);
#40=CIRCLE('',#475,1.45);
#41=FACE_OUTER_BOUND('',#68,.T.);
#42=FACE_OUTER_BOUND('',#69,.T.);
#43=FACE_OUTER_BOUND('',#70,.T.);
#44=FACE_OUTER_BOUND('',#71,.T.);
#45=FACE_OUTER_BOUND('',#72,.T.);
#46=FACE_OUTER_BOUND('',#73,.T.);
#47=FACE_OUTER_BOUND('',#74,.T.);
#48=FACE_OUTER_BOUND('',#75,.T.);
#49=FACE_OUTER_BOUND('',#76,.T.);
#50=FACE_OUTER_BOUND('',#77,.T.);
#51=FACE_OUTER_BOUND('',#79,.T.);
#52=FACE_OUTER_BOUND('',#81,.T.);
#53=FACE_OUTER_BOUND('',#82,.T.);
#54=FACE_OUTER_BOUND('',#83,.T.);
#55=FACE_OUTER_BOUND('',#89,.T.);
#56=FACE_OUTER_BOUND('',#90,.T.);
#57=FACE_OUTER_BOUND('',#91,.T.);
#58=FACE_OUTER_BOUND('',#92,.T.);
#59=FACE_OUTER_BOUND('',#93,.T.);
#60=FACE_OUTER_BOUND('',#95,.T.);
#61=FACE_OUTER_BOUND('',#96,.T.);
#62=FACE_OUTER_BOUND('',#97,.T.);
#63=FACE_OUTER_BOUND('',#98,.T.);
#64=FACE_OUTER_BOUND('',#99,.T.);
#65=FACE_OUTER_BOUND('',#100,.T.);
#66=FACE_OUTER_BOUND('',#102,.T.);
#67=FACE_OUTER_BOUND('',#103,.T.);
#68=EDGE_LOOP('',(#278,#279,#280,#281));
#69=EDGE_LOOP('',(#282,#283,#284,#285));
#70=EDGE_LOOP('',(#286,#287,#288,#289));
#71=EDGE_LOOP('',(#290,#291,#292,#293));
#72=EDGE_LOOP('',(#294));
#73=EDGE_LOOP('',(#295));
#74=EDGE_LOOP('',(#296));
#75=EDGE_LOOP('',(#297));
#76=EDGE_LOOP('',(#298,#299,#300,#301));
#77=EDGE_LOOP('',(#302));
#78=EDGE_LOOP('',(#303));
#79=EDGE_LOOP('',(#304));
#80=EDGE_LOOP('',(#305));
#81=EDGE_LOOP('',(#306,#307,#308,#309));
#82=EDGE_LOOP('',(#310,#311,#312,#313));
#83=EDGE_LOOP('',(#314,#315,#316,#317));
#84=EDGE_LOOP('',(#318));
#85=EDGE_LOOP('',(#319));
#86=EDGE_LOOP('',(#320));
#87=EDGE_LOOP('',(#321));
#88=EDGE_LOOP('',(#322,#323,#324,#325));
#89=EDGE_LOOP('',(#326,#327,#328,#329));
#90=EDGE_LOOP('',(#330,#331,#332,#333));
#91=EDGE_LOOP('',(#334,#335,#336,#337));
#92=EDGE_LOOP('',(#338,#339,#340,#341));
#93=EDGE_LOOP('',(#342,#343,#344,#345));
#94=EDGE_LOOP('',(#346,#347,#348,#349));
#95=EDGE_LOOP('',(#350,#351,#352,#353));
#96=EDGE_LOOP('',(#354,#355,#356,#357));
#97=EDGE_LOOP('',(#358,#359,#360,#361));
#98=EDGE_LOOP('',(#362,#363,#364,#365));
#99=EDGE_LOOP('',(#366,#367,#368,#369));
#100=EDGE_LOOP('',(#370,#371,#372,#373));
#101=EDGE_LOOP('',(#374,#375,#376,#377));
#102=EDGE_LOOP('',(#378,#379,#380,#381));
#103=EDGE_LOOP('',(#382,#383,#384,#385));
#104=LINE('',#615,#146);
#105=LINE('',#617,#147);
#106=LINE('',#619,#148);
#107=LINE('',#620,#149);
#108=LINE('',#623,#150);
#109=LINE('',#625,#151);
#110=LINE('',#626,#152);
#111=LINE('',#629,#153);
#112=LINE('',#631,#154);
#113=LINE('',#632,#155);
#114=LINE('',#634,#156);
#115=LINE('',#635,#157);
#116=LINE('',#652,#158);
#117=LINE('',#661,#159);
#118=LINE('',#665,#160);
#119=LINE('',#669,#161);
#120=LINE('',#671,#162);
#121=LINE('',#673,#163);
#122=LINE('',#674,#164);
#123=LINE('',#683,#165);
#124=LINE('',#685,#166);
#125=LINE('',#687,#167);
#126=LINE('',#688,#168);
#127=LINE('',#690,#169);
#128=LINE('',#692,#170);
#129=LINE('',#694,#171);
#130=LINE('',#698,#172);
#131=LINE('',#699,#173);
#132=LINE('',#700,#174);
#133=LINE('',#703,#175);
#134=LINE('',#704,#176);
#135=LINE('',#707,#177);
#136=LINE('',#708,#178);
#137=LINE('',#710,#179);
#138=LINE('',#714,#180);
#139=LINE('',#715,#181);
#140=LINE('',#716,#182);
#141=LINE('',#719,#183);
#142=LINE('',#720,#184);
#143=LINE('',#723,#185);
#144=LINE('',#724,#186);
#145=LINE('',#726,#187);
#146=VECTOR('',#493,10.);
#147=VECTOR('',#494,10.);
#148=VECTOR('',#495,10.);
#149=VECTOR('',#496,10.);
#150=VECTOR('',#499,10.);
#151=VECTOR('',#500,10.);
#152=VECTOR('',#501,10.);
#153=VECTOR('',#504,10.);
#154=VECTOR('',#505,10.);
#155=VECTOR('',#506,10.);
#156=VECTOR('',#509,10.);
#157=VECTOR('',#510,10.);
#158=VECTOR('',#531,2.5);
#159=VECTOR('',#544,1.45);
#160=VECTOR('',#549,1.45);
#161=VECTOR('',#552,10.);
#162=VECTOR('',#553,10.);
#163=VECTOR('',#554,10.);
#164=VECTOR('',#555,10.);
#165=VECTOR('',#562,10.);
#166=VECTOR('',#563,10.);
#167=VECTOR('',#564,10.);
#168=VECTOR('',#565,10.);
#169=VECTOR('',#568,1.45);
#170=VECTOR('',#571,1.45);
#171=VECTOR('',#574,1.45);
#172=VECTOR('',#577,10.);
#173=VECTOR('',#578,10.);
#174=VECTOR('',#579,10.);
#175=VECTOR('',#582,10.);
#176=VECTOR('',#583,10.);
#177=VECTOR('',#586,10.);
#178=VECTOR('',#587,10.);
#179=VECTOR('',#590,10.);
#180=VECTOR('',#593,10.);
#181=VECTOR('',#594,10.);
#182=VECTOR('',#595,10.);
#183=VECTOR('',#598,10.);
#184=VECTOR('',#599,10.);
#185=VECTOR('',#602,10.);
#186=VECTOR('',#603,10.);
#187=VECTOR('',#606,10.);
#188=VERTEX_POINT('',#613);
#189=VERTEX_POINT('',#614);
#190=VERTEX_POINT('',#616);
#191=VERTEX_POINT('',#618);
#192=VERTEX_POINT('',#622);
#193=VERTEX_POINT('',#624);
#194=VERTEX_POINT('',#628);
#195=VERTEX_POINT('',#630);
#196=VERTEX_POINT('',#637);
#197=VERTEX_POINT('',#640);
#198=VERTEX_POINT('',#643);
#199=VERTEX_POINT('',#646);
#200=VERTEX_POINT('',#649);
#201=VERTEX_POINT('',#651);
#202=VERTEX_POINT('',#655);
#203=VERTEX_POINT('',#658);
#204=VERTEX_POINT('',#663);
#205=VERTEX_POINT('',#667);
#206=VERTEX_POINT('',#668);
#207=VERTEX_POINT('',#670);
#208=VERTEX_POINT('',#672);
#209=VERTEX_POINT('',#675);
#210=VERTEX_POINT('',#677);
#211=VERTEX_POINT('',#679);
#212=VERTEX_POINT('',#681);
#213=VERTEX_POINT('',#682);
#214=VERTEX_POINT('',#684);
#215=VERTEX_POINT('',#686);
#216=VERTEX_POINT('',#696);
#217=VERTEX_POINT('',#697);
#218=VERTEX_POINT('',#702);
#219=VERTEX_POINT('',#706);
#220=VERTEX_POINT('',#712);
#221=VERTEX_POINT('',#713);
#222=VERTEX_POINT('',#718);
#223=VERTEX_POINT('',#722);
#224=EDGE_CURVE('',#188,#189,#104,.T.);
#225=EDGE_CURVE('',#190,#188,#105,.T.);
#226=EDGE_CURVE('',#191,#190,#106,.T.);
#227=EDGE_CURVE('',#191,#189,#107,.T.);
#228=EDGE_CURVE('',#189,#192,#108,.T.);
#229=EDGE_CURVE('',#193,#191,#109,.T.);
#230=EDGE_CURVE('',#193,#192,#110,.T.);
#231=EDGE_CURVE('',#192,#194,#111,.T.);
#232=EDGE_CURVE('',#195,#193,#112,.T.);
#233=EDGE_CURVE('',#195,#194,#113,.T.);
#234=EDGE_CURVE('',#194,#188,#114,.T.);
#235=EDGE_CURVE('',#190,#195,#115,.T.);
#236=EDGE_CURVE('',#196,#196,#29,.T.);
#237=EDGE_CURVE('',#197,#197,#30,.T.);
#238=EDGE_CURVE('',#198,#198,#31,.T.);
#239=EDGE_CURVE('',#199,#199,#32,.T.);
#240=EDGE_CURVE('',#200,#200,#33,.T.);
#241=EDGE_CURVE('',#200,#201,#116,.T.);
#242=EDGE_CURVE('',#201,#201,#34,.T.);
#243=EDGE_CURVE('',#202,#202,#35,.T.);
#244=EDGE_CURVE('',#203,#203,#36,.T.);
#245=EDGE_CURVE('',#203,#199,#117,.T.);
#246=EDGE_CURVE('',#204,#204,#37,.T.);
#247=EDGE_CURVE('',#204,#196,#118,.T.);
#248=EDGE_CURVE('',#205,#206,#119,.T.);
#249=EDGE_CURVE('',#206,#207,#120,.T.);
#250=EDGE_CURVE('',#207,#208,#121,.T.);
#251=EDGE_CURVE('',#208,#205,#122,.T.);
#252=EDGE_CURVE('',#209,#209,#38,.T.);
#253=EDGE_CURVE('',#210,#210,#39,.T.);
#254=EDGE_CURVE('',#211,#211,#40,.T.);
#255=EDGE_CURVE('',#212,#213,#123,.T.);
#256=EDGE_CURVE('',#213,#214,#124,.T.);
#257=EDGE_CURVE('',#214,#215,#125,.T.);
#258=EDGE_CURVE('',#215,#212,#126,.T.);
#259=EDGE_CURVE('',#211,#197,#127,.T.);
#260=EDGE_CURVE('',#210,#202,#128,.T.);
#261=EDGE_CURVE('',#209,#198,#129,.T.);
#262=EDGE_CURVE('',#216,#217,#130,.T.);
#263=EDGE_CURVE('',#216,#212,#131,.T.);
#264=EDGE_CURVE('',#217,#215,#132,.T.);
#265=EDGE_CURVE('',#218,#216,#133,.T.);
#266=EDGE_CURVE('',#218,#213,#134,.T.);
#267=EDGE_CURVE('',#217,#219,#135,.T.);
#268=EDGE_CURVE('',#219,#214,#136,.T.);
#269=EDGE_CURVE('',#219,#218,#137,.T.);
#270=EDGE_CURVE('',#220,#221,#138,.T.);
#271=EDGE_CURVE('',#221,#205,#139,.T.);
#272=EDGE_CURVE('',#220,#208,#140,.T.);
#273=EDGE_CURVE('',#222,#220,#141,.T.);
#274=EDGE_CURVE('',#222,#207,#142,.T.);
#275=EDGE_CURVE('',#223,#222,#143,.T.);
#276=EDGE_CURVE('',#223,#206,#144,.T.);
#277=EDGE_CURVE('',#221,#223,#145,.T.);
#278=ORIENTED_EDGE('',*,*,#224,.F.);
#279=ORIENTED_EDGE('',*,*,#225,.F.);
#280=ORIENTED_EDGE('',*,*,#226,.F.);
#281=ORIENTED_EDGE('',*,*,#227,.T.);
#282=ORIENTED_EDGE('',*,*,#228,.F.);
#283=ORIENTED_EDGE('',*,*,#227,.F.);
#284=ORIENTED_EDGE('',*,*,#229,.F.);
#285=ORIENTED_EDGE('',*,*,#230,.T.);
#286=ORIENTED_EDGE('',*,*,#231,.F.);
#287=ORIENTED_EDGE('',*,*,#230,.F.);
#288=ORIENTED_EDGE('',*,*,#232,.F.);
#289=ORIENTED_EDGE('',*,*,#233,.T.);
#290=ORIENTED_EDGE('',*,*,#234,.F.);
#291=ORIENTED_EDGE('',*,*,#233,.F.);
#292=ORIENTED_EDGE('',*,*,#235,.F.);
#293=ORIENTED_EDGE('',*,*,#225,.T.);
#294=ORIENTED_EDGE('',*,*,#236,.F.);
#295=ORIENTED_EDGE('',*,*,#237,.F.);
#296=ORIENTED_EDGE('',*,*,#238,.F.);
#297=ORIENTED_EDGE('',*,*,#239,.F.);
#298=ORIENTED_EDGE('',*,*,#240,.F.);
#299=ORIENTED_EDGE('',*,*,#241,.T.);
#300=ORIENTED_EDGE('',*,*,#242,.T.);
#301=ORIENTED_EDGE('',*,*,#241,.F.);
#302=ORIENTED_EDGE('',*,*,#242,.F.);
#303=ORIENTED_EDGE('',*,*,#243,.F.);
#304=ORIENTED_EDGE('',*,*,#240,.T.);
#305=ORIENTED_EDGE('',*,*,#244,.F.);
#306=ORIENTED_EDGE('',*,*,#244,.T.);
#307=ORIENTED_EDGE('',*,*,#245,.T.);
#308=ORIENTED_EDGE('',*,*,#239,.T.);
#309=ORIENTED_EDGE('',*,*,#245,.F.);
#310=ORIENTED_EDGE('',*,*,#246,.F.);
#311=ORIENTED_EDGE('',*,*,#247,.T.);
#312=ORIENTED_EDGE('',*,*,#236,.T.);
#313=ORIENTED_EDGE('',*,*,#247,.F.);
#314=ORIENTED_EDGE('',*,*,#248,.T.);
#315=ORIENTED_EDGE('',*,*,#249,.T.);
#316=ORIENTED_EDGE('',*,*,#250,.T.);
#317=ORIENTED_EDGE('',*,*,#251,.T.);
#318=ORIENTED_EDGE('',*,*,#252,.T.);
#319=ORIENTED_EDGE('',*,*,#253,.T.);
#320=ORIENTED_EDGE('',*,*,#254,.T.);
#321=ORIENTED_EDGE('',*,*,#246,.T.);
#322=ORIENTED_EDGE('',*,*,#255,.T.);
#323=ORIENTED_EDGE('',*,*,#256,.T.);
#324=ORIENTED_EDGE('',*,*,#257,.T.);
#325=ORIENTED_EDGE('',*,*,#258,.T.);
#326=ORIENTED_EDGE('',*,*,#254,.F.);
#327=ORIENTED_EDGE('',*,*,#259,.T.);
#328=ORIENTED_EDGE('',*,*,#237,.T.);
#329=ORIENTED_EDGE('',*,*,#259,.F.);
#330=ORIENTED_EDGE('',*,*,#253,.F.);
#331=ORIENTED_EDGE('',*,*,#260,.T.);
#332=ORIENTED_EDGE('',*,*,#243,.T.);
#333=ORIENTED_EDGE('',*,*,#260,.F.);
#334=ORIENTED_EDGE('',*,*,#252,.F.);
#335=ORIENTED_EDGE('',*,*,#261,.T.);
#336=ORIENTED_EDGE('',*,*,#238,.T.);
#337=ORIENTED_EDGE('',*,*,#261,.F.);
#338=ORIENTED_EDGE('',*,*,#262,.F.);
#339=ORIENTED_EDGE('',*,*,#263,.T.);
#340=ORIENTED_EDGE('',*,*,#258,.F.);
#341=ORIENTED_EDGE('',*,*,#264,.F.);
#342=ORIENTED_EDGE('',*,*,#265,.F.);
#343=ORIENTED_EDGE('',*,*,#266,.T.);
#344=ORIENTED_EDGE('',*,*,#255,.F.);
#345=ORIENTED_EDGE('',*,*,#263,.F.);
#346=ORIENTED_EDGE('',*,*,#231,.T.);
#347=ORIENTED_EDGE('',*,*,#234,.T.);
#348=ORIENTED_EDGE('',*,*,#224,.T.);
#349=ORIENTED_EDGE('',*,*,#228,.T.);
#350=ORIENTED_EDGE('',*,*,#267,.F.);
#351=ORIENTED_EDGE('',*,*,#264,.T.);
#352=ORIENTED_EDGE('',*,*,#257,.F.);
#353=ORIENTED_EDGE('',*,*,#268,.F.);
#354=ORIENTED_EDGE('',*,*,#269,.F.);
#355=ORIENTED_EDGE('',*,*,#268,.T.);
#356=ORIENTED_EDGE('',*,*,#256,.F.);
#357=ORIENTED_EDGE('',*,*,#266,.F.);
#358=ORIENTED_EDGE('',*,*,#270,.T.);
#359=ORIENTED_EDGE('',*,*,#271,.T.);
#360=ORIENTED_EDGE('',*,*,#251,.F.);
#361=ORIENTED_EDGE('',*,*,#272,.F.);
#362=ORIENTED_EDGE('',*,*,#273,.T.);
#363=ORIENTED_EDGE('',*,*,#272,.T.);
#364=ORIENTED_EDGE('',*,*,#250,.F.);
#365=ORIENTED_EDGE('',*,*,#274,.F.);
#366=ORIENTED_EDGE('',*,*,#275,.T.);
#367=ORIENTED_EDGE('',*,*,#274,.T.);
#368=ORIENTED_EDGE('',*,*,#249,.F.);
#369=ORIENTED_EDGE('',*,*,#276,.F.);
#370=ORIENTED_EDGE('',*,*,#277,.T.);
#371=ORIENTED_EDGE('',*,*,#276,.T.);
#372=ORIENTED_EDGE('',*,*,#248,.F.);
#373=ORIENTED_EDGE('',*,*,#271,.F.);
#374=ORIENTED_EDGE('',*,*,#232,.T.);
#375=ORIENTED_EDGE('',*,*,#229,.T.);
#376=ORIENTED_EDGE('',*,*,#226,.T.);
#377=ORIENTED_EDGE('',*,*,#235,.T.);
#378=ORIENTED_EDGE('',*,*,#265,.T.);
#379=ORIENTED_EDGE('',*,*,#262,.T.);
#380=ORIENTED_EDGE('',*,*,#267,.T.);
#381=ORIENTED_EDGE('',*,*,#269,.T.);
#382=ORIENTED_EDGE('',*,*,#277,.F.);
#383=ORIENTED_EDGE('',*,*,#270,.F.);
#384=ORIENTED_EDGE('',*,*,#273,.F.);
#385=ORIENTED_EDGE('',*,*,#275,.F.);
#386=PLANE('',#450);
#387=PLANE('',#451);
#388=PLANE('',#452);
#389=PLANE('',#453);
#390=PLANE('',#454);
#391=PLANE('',#456);
#392=PLANE('',#458);
#393=PLANE('',#460);
#394=PLANE('',#465);
#395=PLANE('',#467);
#396=PLANE('',#472);
#397=PLANE('',#479);
#398=PLANE('',#480);
#399=PLANE('',#481);
#400=PLANE('',#482);
#401=PLANE('',#483);
#402=PLANE('',#484);
#403=PLANE('',#485);
#404=PLANE('',#486);
#405=PLANE('',#487);
#406=PLANE('',#488);
#407=STYLED_ITEM('',(#753),#421);
#408=STYLED_ITEM('',(#753),#422);
#409=STYLED_ITEM('',(#753),#423);
#410=STYLED_ITEM('',(#753),#424);
#411=STYLED_ITEM('',(#754),#434);
#412=STYLED_ITEM('',(#752),#438);
#413=STYLED_ITEM('',(#752),#440);
#414=STYLED_ITEM('',(#754),#442);
#415=STYLED_ITEM('',(#754),#443);
#416=STYLED_ITEM('',(#754),#444);
#417=STYLED_ITEM('',(#754),#445);
#418=STYLED_ITEM('',(#752),#446);
#419=STYLED_ITEM('',(#752),#447);
#420=STYLED_ITEM('',(#752),#13);
#421=ADVANCED_FACE('',(#41),#386,.F.);
#422=ADVANCED_FACE('',(#42),#387,.F.);
#423=ADVANCED_FACE('',(#43),#388,.F.);
#424=ADVANCED_FACE('',(#44),#389,.F.);
#425=ADVANCED_FACE('',(#45),#390,.T.);
#426=ADVANCED_FACE('',(#46),#391,.T.);
#427=ADVANCED_FACE('',(#47),#392,.T.);
#428=ADVANCED_FACE('',(#48),#393,.T.);
#429=ADVANCED_FACE('',(#49),#23,.F.);
#430=ADVANCED_FACE('',(#50,#14),#394,.F.);
#431=ADVANCED_FACE('',(#51,#15),#395,.T.);
#432=ADVANCED_FACE('',(#52),#24,.F.);
#433=ADVANCED_FACE('',(#53),#25,.F.);
#434=ADVANCED_FACE('',(#54,#16,#17,#18,#19,#20),#396,.T.);
#435=ADVANCED_FACE('',(#55),#26,.F.);
#436=ADVANCED_FACE('',(#56),#27,.F.);
#437=ADVANCED_FACE('',(#57),#28,.F.);
#438=ADVANCED_FACE('',(#58),#397,.T.);
#439=ADVANCED_FACE('',(#59,#21),#398,.T.);
#440=ADVANCED_FACE('',(#60),#399,.T.);
#441=ADVANCED_FACE('',(#61),#400,.T.);
#442=ADVANCED_FACE('',(#62),#401,.T.);
#443=ADVANCED_FACE('',(#63),#402,.T.);
#444=ADVANCED_FACE('',(#64),#403,.T.);
#445=ADVANCED_FACE('',(#65,#22),#404,.T.);
#446=ADVANCED_FACE('',(#66),#405,.T.);
#447=ADVANCED_FACE('',(#67),#406,.F.);
#448=CLOSED_SHELL('',(#421,#422,#423,#424,#425,#426,#427,#428,#429,#430,
#431,#432,#433,#434,#435,#436,#437,#438,#439,#440,#441,#442,#443,#444,#445,
#446,#447));
#449=AXIS2_PLACEMENT_3D('',#611,#489,#490);
#450=AXIS2_PLACEMENT_3D('',#612,#491,#492);
#451=AXIS2_PLACEMENT_3D('',#621,#497,#498);
#452=AXIS2_PLACEMENT_3D('',#627,#502,#503);
#453=AXIS2_PLACEMENT_3D('',#633,#507,#508);
#454=AXIS2_PLACEMENT_3D('',#636,#511,#512);
#455=AXIS2_PLACEMENT_3D('',#638,#513,#514);
#456=AXIS2_PLACEMENT_3D('',#639,#515,#516);
#457=AXIS2_PLACEMENT_3D('',#641,#517,#518);
#458=AXIS2_PLACEMENT_3D('',#642,#519,#520);
#459=AXIS2_PLACEMENT_3D('',#644,#521,#522);
#460=AXIS2_PLACEMENT_3D('',#645,#523,#524);
#461=AXIS2_PLACEMENT_3D('',#647,#525,#526);
#462=AXIS2_PLACEMENT_3D('',#648,#527,#528);
#463=AXIS2_PLACEMENT_3D('',#650,#529,#530);
#464=AXIS2_PLACEMENT_3D('',#653,#532,#533);
#465=AXIS2_PLACEMENT_3D('',#654,#534,#535);
#466=AXIS2_PLACEMENT_3D('',#656,#536,#537);
#467=AXIS2_PLACEMENT_3D('',#657,#538,#539);
#468=AXIS2_PLACEMENT_3D('',#659,#540,#541);
#469=AXIS2_PLACEMENT_3D('',#660,#542,#543);
#470=AXIS2_PLACEMENT_3D('',#662,#545,#546);
#471=AXIS2_PLACEMENT_3D('',#664,#547,#548);
#472=AXIS2_PLACEMENT_3D('',#666,#550,#551);
#473=AXIS2_PLACEMENT_3D('',#676,#556,#557);
#474=AXIS2_PLACEMENT_3D('',#678,#558,#559);
#475=AXIS2_PLACEMENT_3D('',#680,#560,#561);
#476=AXIS2_PLACEMENT_3D('',#689,#566,#567);
#477=AXIS2_PLACEMENT_3D('',#691,#569,#570);
#478=AXIS2_PLACEMENT_3D('',#693,#572,#573);
#479=AXIS2_PLACEMENT_3D('',#695,#575,#576);
#480=AXIS2_PLACEMENT_3D('',#701,#580,#581);
#481=AXIS2_PLACEMENT_3D('',#705,#584,#585);
#482=AXIS2_PLACEMENT_3D('',#709,#588,#589);
#483=AXIS2_PLACEMENT_3D('',#711,#591,#592);
#484=AXIS2_PLACEMENT_3D('',#717,#596,#597);
#485=AXIS2_PLACEMENT_3D('',#721,#600,#601);
#486=AXIS2_PLACEMENT_3D('',#725,#604,#605);
#487=AXIS2_PLACEMENT_3D('',#727,#607,#608);
#488=AXIS2_PLACEMENT_3D('',#728,#609,#610);
#489=DIRECTION('axis',(0.,0.,1.));
#490=DIRECTION('refdir',(1.,0.,0.));
#491=DIRECTION('center_axis',(0.,0.,1.));
#492=DIRECTION('ref_axis',(0.,-1.,0.));
#493=DIRECTION('',(0.,1.,0.));
#494=DIRECTION('',(1.,0.,0.));
#495=DIRECTION('',(0.,-1.,0.));
#496=DIRECTION('',(1.,0.,0.));
#497=DIRECTION('center_axis',(0.,1.,0.));
#498=DIRECTION('ref_axis',(0.,0.,1.));
#499=DIRECTION('',(0.,0.,-1.));
#500=DIRECTION('',(0.,0.,1.));
#501=DIRECTION('',(1.,0.,0.));
#502=DIRECTION('center_axis',(0.,0.,-1.));
#503=DIRECTION('ref_axis',(0.,1.,0.));
#504=DIRECTION('',(0.,-1.,0.));
#505=DIRECTION('',(0.,1.,0.));
#506=DIRECTION('',(1.,0.,0.));
#507=DIRECTION('center_axis',(0.,-1.,0.));
#508=DIRECTION('ref_axis',(0.,0.,-1.));
#509=DIRECTION('',(0.,0.,1.));
#510=DIRECTION('',(0.,0.,-1.));
#511=DIRECTION('center_axis',(0.,0.,1.));
#512=DIRECTION('ref_axis',(1.,0.,0.));
#513=DIRECTION('center_axis',(0.,0.,-1.));
#514=DIRECTION('ref_axis',(1.,0.,0.));
#515=DIRECTION('center_axis',(0.,0.,1.));
#516=DIRECTION('ref_axis',(1.,0.,0.));
#517=DIRECTION('center_axis',(0.,0.,-1.));
#518=DIRECTION('ref_axis',(1.,0.,0.));
#519=DIRECTION('center_axis',(0.,0.,1.));
#520=DIRECTION('ref_axis',(1.,0.,0.));
#521=DIRECTION('center_axis',(0.,0.,-1.));
#522=DIRECTION('ref_axis',(1.,0.,0.));
#523=DIRECTION('center_axis',(0.,0.,1.));
#524=DIRECTION('ref_axis',(1.,0.,0.));
#525=DIRECTION('center_axis',(0.,0.,-1.));
#526=DIRECTION('ref_axis',(1.,0.,0.));
#527=DIRECTION('center_axis',(0.,0.,1.));
#528=DIRECTION('ref_axis',(1.,0.,0.));
#529=DIRECTION('center_axis',(0.,0.,1.));
#530=DIRECTION('ref_axis',(1.,0.,0.));
#531=DIRECTION('',(0.,0.,1.));
#532=DIRECTION('center_axis',(0.,0.,1.));
#533=DIRECTION('ref_axis',(1.,0.,0.));
#534=DIRECTION('center_axis',(0.,0.,1.));
#535=DIRECTION('ref_axis',(1.,0.,0.));
#536=DIRECTION('center_axis',(0.,0.,-1.));
#537=DIRECTION('ref_axis',(1.,0.,0.));
#538=DIRECTION('center_axis',(0.,0.,1.));
#539=DIRECTION('ref_axis',(1.,0.,0.));
#540=DIRECTION('center_axis',(0.,0.,1.));
#541=DIRECTION('ref_axis',(1.,0.,0.));
#542=DIRECTION('center_axis',(0.,0.,1.));
#543=DIRECTION('ref_axis',(1.,0.,0.));
#544=DIRECTION('',(0.,0.,-1.));
#545=DIRECTION('center_axis',(0.,0.,1.));
#546=DIRECTION('ref_axis',(1.,0.,0.));
#547=DIRECTION('center_axis',(0.,0.,-1.));
#548=DIRECTION('ref_axis',(1.,0.,0.));
#549=DIRECTION('',(0.,0.,-1.));
#550=DIRECTION('center_axis',(0.,0.,1.));
#551=DIRECTION('ref_axis',(1.,0.,0.));
#552=DIRECTION('',(0.,-1.,0.));
#553=DIRECTION('',(1.,0.,0.));
#554=DIRECTION('',(0.,1.,0.));
#555=DIRECTION('',(-1.,1.55616017468265E-16,0.));
#556=DIRECTION('center_axis',(0.,0.,-1.));
#557=DIRECTION('ref_axis',(1.,0.,0.));
#558=DIRECTION('center_axis',(0.,0.,-1.));
#559=DIRECTION('ref_axis',(1.,0.,0.));
#560=DIRECTION('center_axis',(0.,0.,-1.));
#561=DIRECTION('ref_axis',(1.,0.,0.));
#562=DIRECTION('',(0.,1.,0.));
#563=DIRECTION('',(1.,0.,0.));
#564=DIRECTION('',(0.,-1.,0.));
#565=DIRECTION('',(-1.,0.,0.));
#566=DIRECTION('center_axis',(0.,0.,1.));
#567=DIRECTION('ref_axis',(1.,0.,0.));
#568=DIRECTION('',(0.,0.,-1.));
#569=DIRECTION('center_axis',(0.,0.,1.));
#570=DIRECTION('ref_axis',(1.,0.,0.));
#571=DIRECTION('',(0.,0.,-1.));
#572=DIRECTION('center_axis',(0.,0.,1.));
#573=DIRECTION('ref_axis',(1.,0.,0.));
#574=DIRECTION('',(0.,0.,-1.));
#575=DIRECTION('center_axis',(0.,1.,0.));
#576=DIRECTION('ref_axis',(-1.,0.,0.));
#577=DIRECTION('',(1.,0.,0.));
#578=DIRECTION('',(0.,0.,1.));
#579=DIRECTION('',(0.,0.,1.));
#580=DIRECTION('center_axis',(1.,0.,0.));
#581=DIRECTION('ref_axis',(0.,1.,0.));
#582=DIRECTION('',(0.,-1.,0.));
#583=DIRECTION('',(0.,0.,1.));
#584=DIRECTION('center_axis',(-1.,0.,0.));
#585=DIRECTION('ref_axis',(0.,-1.,0.));
#586=DIRECTION('',(0.,1.,0.));
#587=DIRECTION('',(0.,0.,1.));
#588=DIRECTION('center_axis',(0.,-1.,0.));
#589=DIRECTION('ref_axis',(1.,0.,0.));
#590=DIRECTION('',(-1.,0.,0.));
#591=DIRECTION('center_axis',(1.55616017468265E-16,1.,0.));
#592=DIRECTION('ref_axis',(-1.,1.55616017468265E-16,0.));
#593=DIRECTION('',(-1.,1.55616017468265E-16,0.));
#594=DIRECTION('',(0.,0.,1.));
#595=DIRECTION('',(0.,0.,1.));
#596=DIRECTION('center_axis',(1.,0.,0.));
#597=DIRECTION('ref_axis',(0.,1.,0.));
#598=DIRECTION('',(0.,1.,0.));
#599=DIRECTION('',(0.,0.,1.));
#600=DIRECTION('center_axis',(0.,-1.,0.));
#601=DIRECTION('ref_axis',(1.,0.,0.));
#602=DIRECTION('',(1.,0.,0.));
#603=DIRECTION('',(0.,0.,1.));
#604=DIRECTION('center_axis',(-1.,0.,0.));
#605=DIRECTION('ref_axis',(0.,-1.,0.));
#606=DIRECTION('',(0.,-1.,0.));
#607=DIRECTION('center_axis',(0.,0.,1.));
#608=DIRECTION('ref_axis',(1.,0.,0.));
#609=DIRECTION('center_axis',(0.,0.,1.));
#610=DIRECTION('ref_axis',(1.,0.,0.));
#611=CARTESIAN_POINT('',(0.,0.,0.));
#612=CARTESIAN_POINT('Origin',(-8.53162407821756,20.0000002980232,10.0000000745058));
#613=CARTESIAN_POINT('',(0.,10.0000002980232,10.0000000745058));
#614=CARTESIAN_POINT('',(0.,20.0000002980232,10.0000000745058));
#615=CARTESIAN_POINT('',(0.,10.0000001490116,10.0000000745058));
#616=CARTESIAN_POINT('',(-8.53162407821756,10.0000002980232,10.0000000745058));
#617=CARTESIAN_POINT('',(-8.53162407821756,10.0000002980232,10.0000000745058));
#618=CARTESIAN_POINT('',(-8.53162407821756,20.0000002980232,10.0000000745058));
#619=CARTESIAN_POINT('',(-8.53162407821756,47.8753841060799,10.0000000745058));
#620=CARTESIAN_POINT('',(-8.53162407821756,20.0000002980232,10.0000000745058));
#621=CARTESIAN_POINT('Origin',(-8.53162407821756,20.0000002980232,5.00000007450581));
#622=CARTESIAN_POINT('',(0.,20.0000002980232,5.00000007450581));
#623=CARTESIAN_POINT('',(0.,20.0000002980232,2.5000000372529));
#624=CARTESIAN_POINT('',(-8.53162407821756,20.0000002980232,5.00000007450581));
#625=CARTESIAN_POINT('',(-8.53162407821756,20.0000002980232,2.5000000372529));
#626=CARTESIAN_POINT('',(-8.53162407821756,20.0000002980232,5.00000007450581));
#627=CARTESIAN_POINT('Origin',(-8.53162407821756,10.0000002980232,5.00000007450581));
#628=CARTESIAN_POINT('',(0.,10.0000002980232,5.00000007450581));
#629=CARTESIAN_POINT('',(0.,5.00000014901161,5.00000007450581));
#630=CARTESIAN_POINT('',(-8.53162407821756,10.0000002980232,5.00000007450581));
#631=CARTESIAN_POINT('',(-8.53162407821756,42.8753841060799,5.00000007450581));
#632=CARTESIAN_POINT('',(-8.53162407821756,10.0000002980232,5.00000007450581));
#633=CARTESIAN_POINT('Origin',(-8.53162407821756,10.0000002980232,10.0000000745058));
#634=CARTESIAN_POINT('',(0.,10.0000002980232,5.0000000372529));
#635=CARTESIAN_POINT('',(-8.53162407821756,10.0000002980232,5.0000000372529));
#636=CARTESIAN_POINT('Origin',(-4.00000005960464,-5.00000007450581,1.));
#637=CARTESIAN_POINT('',(-5.45000005960464,-5.00000007450581,1.));
#638=CARTESIAN_POINT('Origin',(-4.00000005960464,-5.00000007450581,1.));
#639=CARTESIAN_POINT('Origin',(-3.99821383419532,69.5948014412831,1.));
#640=CARTESIAN_POINT('',(-5.44821383419532,69.5948014412831,1.));
#641=CARTESIAN_POINT('Origin',(-3.99821383419532,69.5948014412831,1.));
#642=CARTESIAN_POINT('Origin',(99.8903475849665,-5.58290882243575,1.));
#643=CARTESIAN_POINT('',(98.4403475849665,-5.58290882243575,1.));
#644=CARTESIAN_POINT('Origin',(99.8903475849665,-5.58290882243575,1.));
#645=CARTESIAN_POINT('Origin',(100.,70.,1.));
#646=CARTESIAN_POINT('',(98.55,70.,1.));
#647=CARTESIAN_POINT('Origin',(100.,70.,1.));
#648=CARTESIAN_POINT('Origin',(100.000001490116,70.0000010430813,3.));
#649=CARTESIAN_POINT('',(97.5000014901161,70.0000010430813,3.));
#650=CARTESIAN_POINT('Origin',(100.000001490116,70.0000010430813,3.));
#651=CARTESIAN_POINT('',(97.5000014901161,70.0000010430813,4.));
#652=CARTESIAN_POINT('',(97.5000014901161,70.0000010430813,3.));
#653=CARTESIAN_POINT('Origin',(100.000001490116,70.0000010430813,4.));
#654=CARTESIAN_POINT('Origin',(100.000001490116,70.0000010430813,4.));
#655=CARTESIAN_POINT('',(98.55,70.,4.));
#656=CARTESIAN_POINT('Origin',(100.,70.,4.));
#657=CARTESIAN_POINT('Origin',(100.000001490116,70.0000010430813,3.));
#658=CARTESIAN_POINT('',(98.55,70.,3.));
#659=CARTESIAN_POINT('Origin',(100.,70.,3.));
#660=CARTESIAN_POINT('Origin',(100.,70.,0.));
#661=CARTESIAN_POINT('',(98.55,70.,0.));
#662=CARTESIAN_POINT('Origin',(-4.00000005960464,-5.00000007450581,0.));
#663=CARTESIAN_POINT('',(-5.45000005960464,-5.00000007450581,13.));
#664=CARTESIAN_POINT('Origin',(-4.00000005960464,-5.00000007450581,13.));
#665=CARTESIAN_POINT('',(-5.45000005960464,-5.00000007450581,0.));
#666=CARTESIAN_POINT('Origin',(48.5433759217824,32.9257679141365,13.));
#667=CARTESIAN_POINT('',(-8.53162407821756,75.7507679141365,13.));
#668=CARTESIAN_POINT('',(-8.53162407821756,-9.89923208586349,13.));
#669=CARTESIAN_POINT('',(-8.53162407821756,75.7507679141365,13.));
#670=CARTESIAN_POINT('',(105.618375921782,-9.89923208586349,13.));
#671=CARTESIAN_POINT('',(-8.53162407821756,-9.89923208586349,13.));
#672=CARTESIAN_POINT('',(105.618375921782,75.7507679141365,13.));
#673=CARTESIAN_POINT('',(105.618375921782,-9.89923208586349,13.));
#674=CARTESIAN_POINT('',(105.618375921782,75.7507679141365,13.));
#675=CARTESIAN_POINT('',(98.4403475849665,-5.58290882243575,13.));
#676=CARTESIAN_POINT('Origin',(99.8903475849665,-5.58290882243575,13.));
#677=CARTESIAN_POINT('',(98.55,70.,13.));
#678=CARTESIAN_POINT('Origin',(100.,70.,13.));
#679=CARTESIAN_POINT('',(-5.44821383419532,69.5948014412831,13.));
#680=CARTESIAN_POINT('Origin',(-3.99821383419532,69.5948014412831,13.));
#681=CARTESIAN_POINT('',(0.,0.,13.));
#682=CARTESIAN_POINT('',(0.,65.65,13.));
#683=CARTESIAN_POINT('',(0.,65.65,13.));
#684=CARTESIAN_POINT('',(94.15,65.65,13.));
#685=CARTESIAN_POINT('',(94.15,65.65,13.));
#686=CARTESIAN_POINT('',(94.15,0.,13.));
#687=CARTESIAN_POINT('',(94.15,0.,13.));
#688=CARTESIAN_POINT('',(0.,0.,13.));
#689=CARTESIAN_POINT('Origin',(-3.99821383419532,69.5948014412831,0.));
#690=CARTESIAN_POINT('',(-5.44821383419532,69.5948014412831,0.));
#691=CARTESIAN_POINT('Origin',(100.,70.,0.));
#692=CARTESIAN_POINT('',(98.55,70.,0.));
#693=CARTESIAN_POINT('Origin',(99.8903475849665,-5.58290882243575,0.));
#694=CARTESIAN_POINT('',(98.4403475849665,-5.58290882243575,0.));
#695=CARTESIAN_POINT('Origin',(94.15,0.,0.));
#696=CARTESIAN_POINT('',(0.,0.,3.));
#697=CARTESIAN_POINT('',(94.15,0.,3.));
#698=CARTESIAN_POINT('',(0.,0.,3.));
#699=CARTESIAN_POINT('',(0.,0.,0.));
#700=CARTESIAN_POINT('',(94.15,0.,0.));
#701=CARTESIAN_POINT('Origin',(0.,0.,0.));
#702=CARTESIAN_POINT('',(0.,65.65,3.));
#703=CARTESIAN_POINT('',(0.,65.65,3.));
#704=CARTESIAN_POINT('',(0.,65.65,0.));
#705=CARTESIAN_POINT('Origin',(94.15,65.65,0.));
#706=CARTESIAN_POINT('',(94.15,65.65,3.));
#707=CARTESIAN_POINT('',(94.15,0.,3.));
#708=CARTESIAN_POINT('',(94.15,65.65,0.));
#709=CARTESIAN_POINT('Origin',(0.,65.65,0.));
#710=CARTESIAN_POINT('',(94.15,65.65,3.));
#711=CARTESIAN_POINT('Origin',(105.618375921782,75.7507679141365,0.));
#712=CARTESIAN_POINT('',(105.618375921782,75.7507679141365,0.));
#713=CARTESIAN_POINT('',(-8.53162407821756,75.7507679141365,0.));
#714=CARTESIAN_POINT('',(105.618375921782,75.7507679141365,0.));
#715=CARTESIAN_POINT('',(-8.53162407821756,75.7507679141365,0.));
#716=CARTESIAN_POINT('',(105.618375921782,75.7507679141365,0.));
#717=CARTESIAN_POINT('Origin',(105.618375921782,-9.89923208586349,0.));
#718=CARTESIAN_POINT('',(105.618375921782,-9.89923208586349,0.));
#719=CARTESIAN_POINT('',(105.618375921782,-9.89923208586349,0.));
#720=CARTESIAN_POINT('',(105.618375921782,-9.89923208586349,0.));
#721=CARTESIAN_POINT('Origin',(-8.53162407821756,-9.89923208586349,0.));
#722=CARTESIAN_POINT('',(-8.53162407821756,-9.89923208586349,0.));
#723=CARTESIAN_POINT('',(-8.53162407821756,-9.89923208586349,0.));
#724=CARTESIAN_POINT('',(-8.53162407821756,-9.89923208586349,0.));
#725=CARTESIAN_POINT('Origin',(-8.53162407821756,75.7507679141365,0.));
#726=CARTESIAN_POINT('',(-8.53162407821756,75.7507679141365,0.));
#727=CARTESIAN_POINT('Origin',(47.075,32.825,3.));
#728=CARTESIAN_POINT('Origin',(47.075,32.825,0.));
#729=UNCERTAINTY_MEASURE_WITH_UNIT(LENGTH_MEASURE(0.01),#733,
'DISTANCE_ACCURACY_VALUE',
'Maximum model space distance between geometric entities at asserted c
onnectivities');
#730=UNCERTAINTY_MEASURE_WITH_UNIT(LENGTH_MEASURE(0.01),#733,
'DISTANCE_ACCURACY_VALUE',
'Maximum model space distance between geometric entities at asserted c
onnectivities');
#731=(
GEOMETRIC_REPRESENTATION_CONTEXT(3)
GLOBAL_UNCERTAINTY_ASSIGNED_CONTEXT((#729))
GLOBAL_UNIT_ASSIGNED_CONTEXT((#733,#734,#735))
REPRESENTATION_CONTEXT('','3D')
);
#732=(
GEOMETRIC_REPRESENTATION_CONTEXT(3)
GLOBAL_UNCERTAINTY_ASSIGNED_CONTEXT((#730))
GLOBAL_UNIT_ASSIGNED_CONTEXT((#733,#734,#735))
REPRESENTATION_CONTEXT('','3D')
);
#733=(
LENGTH_UNIT()
NAMED_UNIT(*)
SI_UNIT(.MILLI.,.METRE.)
);
#734=(
NAMED_UNIT(*)
PLANE_ANGLE_UNIT()
SI_UNIT($,.RADIAN.)
);
#735=(
NAMED_UNIT(*)
SI_UNIT($,.STERADIAN.)
SOLID_ANGLE_UNIT()
);
#736=SHAPE_DEFINITION_REPRESENTATION(#737,#738);
#737=PRODUCT_DEFINITION_SHAPE('',$,#740);
#738=SHAPE_REPRESENTATION('',(#449),#731);
#739=PRODUCT_DEFINITION_CONTEXT('part definition',#744,'design');
#740=PRODUCT_DEFINITION('2026-08-16-17-15-37-049','AmateurPad',#741,#739);
#741=PRODUCT_DEFINITION_FORMATION('',$,#746);
#742=PRODUCT_RELATED_PRODUCT_CATEGORY('AmateurPad','AmateurPad',(#746));
#743=APPLICATION_PROTOCOL_DEFINITION('international standard',
'automotive_design',2009,#744);
#744=APPLICATION_CONTEXT(
'Core Data for Automotive Mechanical Design Process');
#745=PRODUCT_CONTEXT('part definition',#744,'mechanical');
#746=PRODUCT('2026-08-16-17-15-37-049','AmateurPad',$,(#745));
#747=PRESENTATION_STYLE_ASSIGNMENT((#755));
#748=PRESENTATION_STYLE_ASSIGNMENT((#756));
#749=PRESENTATION_STYLE_ASSIGNMENT((#757));
#750=PRESENTATION_STYLE_ASSIGNMENT((#758));
#751=PRESENTATION_STYLE_ASSIGNMENT((#759));
#752=PRESENTATION_STYLE_ASSIGNMENT((#760));
#753=PRESENTATION_STYLE_ASSIGNMENT((#761));
#754=PRESENTATION_STYLE_ASSIGNMENT((#762));
#755=SURFACE_STYLE_USAGE(.BOTH.,#763);
#756=SURFACE_STYLE_USAGE(.BOTH.,#764);
#757=SURFACE_STYLE_USAGE(.BOTH.,#765);
#758=SURFACE_STYLE_USAGE(.BOTH.,#766);
#759=SURFACE_STYLE_USAGE(.BOTH.,#767);
#760=SURFACE_STYLE_USAGE(.BOTH.,#768);
#761=SURFACE_STYLE_USAGE(.BOTH.,#769);
#762=SURFACE_STYLE_USAGE(.BOTH.,#770);
#763=SURFACE_SIDE_STYLE('',(#771));
#764=SURFACE_SIDE_STYLE('',(#772));
#765=SURFACE_SIDE_STYLE('',(#773));
#766=SURFACE_SIDE_STYLE('',(#774));
#767=SURFACE_SIDE_STYLE('',(#775));
#768=SURFACE_SIDE_STYLE('',(#776));
#769=SURFACE_SIDE_STYLE('',(#777));
#770=SURFACE_SIDE_STYLE('',(#778));
#771=SURFACE_STYLE_FILL_AREA(#779);
#772=SURFACE_STYLE_FILL_AREA(#780);
#773=SURFACE_STYLE_FILL_AREA(#781);
#774=SURFACE_STYLE_FILL_AREA(#782);
#775=SURFACE_STYLE_FILL_AREA(#783);
#776=SURFACE_STYLE_FILL_AREA(#784);
#777=SURFACE_STYLE_FILL_AREA(#785);
#778=SURFACE_STYLE_FILL_AREA(#786);
#779=FILL_AREA_STYLE('Opaque(80,79,79)',(#787));
#780=FILL_AREA_STYLE('Opaque(128,128,128)',(#788));
#781=FILL_AREA_STYLE('Opaque(0,192,0)',(#789));
#782=FILL_AREA_STYLE('Opaque(192,192,192)',(#790));
#783=FILL_AREA_STYLE('Steel - Satin',(#791));
#784=FILL_AREA_STYLE('Plastic - Translucent Glossy (Red)',(#792));
#785=FILL_AREA_STYLE('Plastic - Translucent Matte (Red)',(#793));
#786=FILL_AREA_STYLE('Tough 2000 (with Formlabs SLA 3D Printers)',(#794));
#787=FILL_AREA_STYLE_COLOUR('Opaque(80,79,79)',#795);
#788=FILL_AREA_STYLE_COLOUR('Opaque(128,128,128)',#796);
#789=FILL_AREA_STYLE_COLOUR('Opaque(0,192,0)',#797);
#790=FILL_AREA_STYLE_COLOUR('Opaque(192,192,192)',#798);
#791=FILL_AREA_STYLE_COLOUR('Steel - Satin',#799);
#792=FILL_AREA_STYLE_COLOUR('Plastic - Translucent Glossy (Red)',#800);
#793=FILL_AREA_STYLE_COLOUR('Plastic - Translucent Matte (Red)',#801);
#794=FILL_AREA_STYLE_COLOUR(
'Tough 2000 (with Formlabs SLA 3D Printers)',#802);
#795=COLOUR_RGB('Opaque(80,79,79)',0.313725490196078,0.309803921568627,
0.309803921568627);
#796=COLOUR_RGB('Opaque(128,128,128)',0.501960784313725,0.501960784313725,
0.501960784313725);
#797=COLOUR_RGB('Opaque(0,192,0)',0.,0.752941176470588,0.);
#798=COLOUR_RGB('Opaque(192,192,192)',0.752941176470588,0.752941176470588,
0.752941176470588);
#799=COLOUR_RGB('Steel - Satin',0.627450980392157,0.627450980392157,0.627450980392157);
#800=COLOUR_RGB('Plastic - Translucent Glossy (Red)',0.768627450980392,
0.207843137254902,0.152941176470588);
#801=COLOUR_RGB('Plastic - Translucent Matte (Red)',0.768627450980392,0.207843137254902,
0.152941176470588);
#802=COLOUR_RGB('Tough 2000 (with Formlabs SLA 3D Printers)',0.247058823529412,
0.247058823529412,0.247058823529412);
ENDSEC;
END-ISO-10303-21;
